{
  "title": "The Amazing Spiderman 2 2014 1080p HDTS x264 Pimp4003",
  "uid": 10281778,
  "size": 2263495171,
  "categoryP": "video",
  "categoryS": "hd___movies",
  "magnet": "?xt=urn:btih:98f43f855bcad9c87c518afd7f7e51bd75dc970c&amp;dn=The+Amazing+Spiderman+2+2014+1080p+HDTS+x264+Pimp4003&amp;tr=udp%3A%2F%2Ftracker.openbittorrent.com%3A80&amp;tr=udp%3A%2F%2Fopen.demonii.com%3A1337&amp;tr=udp%3A%2F%2Ftracker.coppersurfer.tk%3A6969&amp;tr=udp%3A%2F%2Fexodus.desync.com%3A6969",
  "seeders": 59,
  "leechers": 2,
  "uploader": "shawnmurthy",
  "files": -1,
  "time": 1401716898,
  "description": "SOURCE: SpEcTre...THANKS\n &lt;a href=&quot;\nhttp://pimp4003.net/torrents.php?id=98f43f855bcad9c87c518afd7f7e51bd75dc970c&quot; rel=&quot;nofollow&quot; target=&quot;_NEW&quot;&gt;\nhttp://pimp4003.net/torrents.php?id=98f43f855bcad9c87c518afd7f7e51bd75dc970c&lt;/a&gt;\n\nThe Amazing Spiderman 2 2014 1080p HDTS x264 Pimp4003\n &lt;a href=&quot;\nhttp://www.imdb.com/title/tt1872181/&quot; rel=&quot;nofollow&quot; target=&quot;_NEW&quot;&gt;\nhttp://www.imdb.com/title/tt1872181/&lt;/a&gt;\n\nPeter Parker runs the gauntlet as the mysterious company Oscorp sends up a slew of supervillains against him, impacting on his life.\n\nDirector: Marc Webb\nWriters: Alex Kurtzman (screenplay), Roberto Orci (screenplay), 7 more credits Â»\nStars: Andrew Garfield, Emma Stone, Jamie Foxx | See full cast and crew Â»\n\nVideo\nID                                       : 2\nFormat                                   : AVC\nFormat/Info                              : Advanced Video Codec\nFormat profile                           : &lt;a class=&quot;__cf_email__&quot; href=&quot;/cdn-cgi/l/email-protection&quot; data-cfemail=&quot;3577544650595c5b507579001b05&quot;&gt;[email&amp;#160;protected]&lt;/a&gt;&lt;script cf-hash='f9e31' type=&quot;text/javascript&quot;&gt;\n/* &lt;![CDATA[ */!function(){try{var t=&quot;currentScript&quot;in document?document.currentScript:function(){for(var t=document.getElementsByTagName(&quot;script&quot;),e=t.length;e--;)if(t[e].getAttribute(&quot;cf-hash&quot;))return t[e]}();if(t&amp;&amp;t.previousSibling){var e,r,n,i,c=t.previousSibling,a=c.getAttribute(&quot;data-cfemail&quot;);if(a){for(e=&quot;&quot;,r=parseInt(a.substr(0,2),16),n=2;a.length-n;n+=2)i=parseInt(a.substr(n,2),16)^r,e+=String.fromCharCode(i);e=document.createTextNode(e),c.parentNode.replaceChild(e,c)}}}catch(u){}}();/* ]]&gt; */&lt;/script&gt;\nFormat settings, CABAC                   : No\nFormat settings, ReFrames                : 1 frame\nFormat settings, GOP                     : M=1, N=25\nMuxing mode                              : Container profile=&lt;a class=&quot;__cf_email__&quot; href=&quot;/cdn-cgi/l/email-protection&quot; data-cfemail=&quot;1456756771787d7a7154203a25&quot;&gt;[email&amp;#160;protected]&lt;/a&gt;&lt;script cf-hash='f9e31' type=&quot;text/javascript&quot;&gt;\n/* &lt;![CDATA[ */!function(){try{var t=&quot;currentScript&quot;in document?document.currentScript:function(){for(var t=document.getElementsByTagName(&quot;script&quot;),e=t.length;e--;)if(t[e].getAttribute(&quot;cf-hash&quot;))return t[e]}();if(t&amp;&amp;t.previousSibling){var e,r,n,i,c=t.previousSibling,a=c.getAttribute(&quot;data-cfemail&quot;);if(a){for(e=&quot;&quot;,r=parseInt(a.substr(0,2),16),n=2;a.length-n;n+=2)i=parseInt(a.substr(n,2),16)^r,e+=String.fromCharCode(i);e=document.createTextNode(e),c.parentNode.replaceChild(e,c)}}}catch(u){}}();/* ]]&gt; */&lt;/script&gt;\nCodec ID                                 : avc1\nCodec ID/Info                            : Advanced Video Coding\nDuration                                 : 2h 16mn\nBit rate                                 : 2 071 Kbps\nWidth                                    : 1 920 pixels\nHeight                                   : 1 080 pixels\nDisplay aspect ratio                     : 16:9\nFrame rate mode                          : Constant\nFrame rate                               : 29.970 fps\nOriginal frame rate                      : 29.000 fps\nColor space                              : YUV\nChroma subsampling                       : 4:2:0\nBit depth                                : 8 bits\nScan type                                : Progressive\nBits/(Pixel*Frame)                       : 0.033\nStream size                              : 1.98 GiB (94%)\nWriting library                          : Ã„\nLanguage                                 : English\n\nAudio\nID                                       : 1\nFormat                                   : AAC\nFormat/Info                              : Advanced Audio Codec\nFormat profile                           : LC\nCodec ID                                 : 40\nDuration                                 : 2h 16mn\nBit rate mode                            : Constant\nBit rate                                 : 128 Kbps\nChannel(s)                               : 2 channels\nChannel positions                        : Front: L R\nSampling rate                            : 48.0 KHz\nCompression mode                         : Lossy\nStream size                              : 125 MiB (6%)\nLanguage                                 : English\n",
  "parsed": {
    "xt": "urn:btih:98f43f855bcad9c87c518afd7f7e51bd75dc970c",
    "dn": "The Amazing Spiderman 2 2014 1080p HDTS x264 Pimp4003",
    "tr": [
      "udp://exodus.desync.com:6969",
      "udp://open.demonii.com:1337",
      "udp://tracker.coppersurfer.tk:6969",
      "udp://tracker.openbittorrent.com:80"
    ],
    "infoHash": "98f43f855bcad9c87c518afd7f7e51bd75dc970c",
    "infoHashBuffer": {
      "type": "Buffer",
      "data": [
        152,
        244,
        63,
        133,
        91,
        202,
        217,
        200,
        124,
        81,
        138,
        253,
        127,
        126,
        81,
        189,
        117,
        220,
        151,
        12
      ]
    },
    "name": "The Amazing Spiderman 2 2014 1080p HDTS x264 Pimp4003",
    "announce": [
      "udp://exodus.desync.com:6969",
      "udp://open.demonii.com:1337",
      "udp://tracker.coppersurfer.tk:6969",
      "udp://tracker.openbittorrent.com:80"
    ],
    "urlList": []
  },
  "previous": 5,
  "peers": 16,
  "last_updated": "2016-12-27T07:53:03.250Z"
}